<?xml version="1.0" encoding="UTF-8" standalone="no"?>
<svg
   width="64"
   height="64"
   viewBox="0 0 16.933333 16.933334"
   version="1.1"
   id="svg8"
   inkscape:version="1.3.2 (1:1.3.2+202311252150+091e20ef0f)"
   sodipodi:docname="Goal.svg"
   inkscape:export-filename="../Object/Marker/Goal.png"
   inkscape:export-xdpi="95.9"
   inkscape:export-ydpi="95.9"
   xmlns:inkscape="http://www.inkscape.org/namespaces/inkscape"
   xmlns:sodipodi="http://sodipodi.sourceforge.net/DTD/sodipodi-0.dtd"
   xmlns="http://www.w3.org/2000/svg"
   xmlns:svg="http://www.w3.org/2000/svg"
   xmlns:rdf="http://www.w3.org/1999/02/22-rdf-syntax-ns#"
   xmlns:cc="http://creativecommons.org/ns#"
   xmlns:dc="http://purl.org/dc/elements/1.1/">
  <defs
     id="defs2" />
  <sodipodi:namedview
     id="base"
     pagecolor="#ffffff"
     bordercolor="#666666"
     borderopacity="1.0"
     inkscape:pageopacity="0.0"
     inkscape:pageshadow="2"
     inkscape:zoom="8"
     inkscape:cx="12.875"
     inkscape:cy="35.25"
     inkscape:document-units="px"
     inkscape:current-layer="layer1"
     inkscape:document-rotation="0"
     showgrid="true"
     units="px"
     inkscape:showpageshadow="2"
     inkscape:pagecheckerboard="0"
     inkscape:deskcolor="#d1d1d1"
     inkscape:window-width="1848"
     inkscape:window-height="1016"
     inkscape:window-x="72"
     inkscape:window-y="27"
     inkscape:window-maximized="1">
    <inkscape:grid
       id="grid1"
       units="px"
       originx="0"
       originy="0"
       spacingx="1.0583333"
       spacingy="1.0583333"
       empcolor="#3f3fff"
       empopacity="0.25098039"
       color="#3f3fff"
       opacity="0.1254902"
       empspacing="4"
       dotted="false"
       gridanglex="30"
       gridanglez="30"
       visible="true" />
  </sodipodi:namedview>
  <metadata
     id="metadata5">
    <rdf:RDF>
      <cc:Work
         rdf:about="">
        <dc:format>image/svg+xml</dc:format>
        <dc:type
           rdf:resource="http://purl.org/dc/dcmitype/StillImage" />
      </cc:Work>
    </rdf:RDF>
  </metadata>
  <g
     inkscape:label="Layer 1"
     inkscape:groupmode="layer"
     id="layer1">
    <path
       id="rect11"
       style="color:#000000;fill:#000000;fill-rule:evenodd;-inkscape-stroke:none"
       d="M 8.0914958 0 L 6.7696127 1.3223999 L 1.8515666 1.3223999 L 1.8515666 1.8515666 L 1.3223999 1.8515666 L 1.3223999 6.7696127 L 0 8.0914958 L 0 8.8418377 L 1.3223999 10.164238 L 1.3223999 15.082284 L 1.8515666 15.082284 L 1.8515666 15.61145 L 6.7696127 15.61145 L 8.0930461 16.933333 L 8.8402874 16.933333 L 10.164238 15.61145 L 15.082284 15.61145 L 15.082284 15.082284 L 15.61145 15.082284 L 15.61145 10.164238 L 16.933333 8.8402874 L 16.933333 8.0930461 L 15.61145 6.7696127 L 15.61145 1.8515666 L 15.082284 1.8515666 L 15.082284 1.3223999 L 10.164238 1.3223999 L 8.8418377 0 L 8.0914958 0 z M 8.4666667 0.3751709 L 9.9451295 1.8515666 L 14.5526 1.8515666 L 14.5526 2.3807333 L 15.082284 2.3807333 L 15.082284 6.988204 L 16.558679 8.4666667 L 15.082284 9.9451295 L 15.082284 14.5526 L 14.5526 14.5526 L 14.5526 15.082284 L 9.9451295 15.082284 L 8.4666667 16.558679 L 6.988204 15.082284 L 2.3807333 15.082284 L 2.3807333 14.5526 L 1.8515666 14.5526 L 1.8515666 9.9451295 L 0.3751709 8.4666667 L 1.8515666 6.988204 L 1.8515666 2.3807333 L 2.3807333 2.3807333 L 2.3807333 1.8515666 L 6.988204 1.8515666 L 8.4666667 0.3751709 z " />
    <path
       id="rect9"
       style="color:#000000;fill:#000000;fill-rule:evenodd;-inkscape-stroke:none"
       d="m 5.29115,3.96875 c -0.7283178,0 -1.3224,0.5940822 -1.3224,1.3224 v 6.35155 c 0,0.728319 0.5940822,1.3224 1.3224,1.3224 h 6.35155 c 0.728319,0 1.3224,-0.594081 1.3224,-1.3224 l 0,-3.4415281 h -0.529683 l 0,3.4415281 c 0,0.444314 -0.348403,0.792717 -0.792717,0.792717 H 5.29115 c -0.444313,0 -0.7932333,-0.348403 -0.7932333,-0.792717 V 5.29115 c 0,-0.444313 0.3489203,-0.7932333 0.7932333,-0.7932333 H 11.6427 V 3.96875 Z"
       sodipodi:nodetypes="ssssssccssssssccs" />
    <path
       style="color:#000000;fill:#000000;-inkscape-stroke:none"
       d="M 8.4667969,8.2011719 V 8.7304688 H 12.699219 V 8.2011719 Z"
       id="path10" />
  </g>
</svg>
