<?xml version="1.0" encoding="UTF-8" standalone="no"?>
<svg
   width="128"
   height="128"
   viewBox="0 0 33.866666 33.866667"
   version="1.1"
   id="svg8"
   inkscape:version="1.3.2 (1:1.3.2+202311252150+091e20ef0f)"
   sodipodi:docname="Particle Effect Dash.svg"
   inkscape:export-filename="../Effect/Puff.png"
   inkscape:export-xdpi="48"
   inkscape:export-ydpi="48"
   xmlns:inkscape="http://www.inkscape.org/namespaces/inkscape"
   xmlns:sodipodi="http://sodipodi.sourceforge.net/DTD/sodipodi-0.dtd"
   xmlns="http://www.w3.org/2000/svg"
   xmlns:svg="http://www.w3.org/2000/svg"
   xmlns:rdf="http://www.w3.org/1999/02/22-rdf-syntax-ns#"
   xmlns:cc="http://creativecommons.org/ns#"
   xmlns:dc="http://purl.org/dc/elements/1.1/">
  <defs
     id="defs2">
    <filter
       style="color-interpolation-filters:sRGB;"
       inkscape:label="Blur"
       id="filter6"
       x="-0.080317576"
       y="-0.079324374"
       width="1.1606352"
       height="1.1586487">
      <feGaussianBlur
         stdDeviation="1 1"
         result="blur"
         id="feGaussianBlur6" />
    </filter>
  </defs>
  <sodipodi:namedview
     id="base"
     pagecolor="#000000"
     bordercolor="#939393"
     borderopacity="1"
     inkscape:pageopacity="0.0"
     inkscape:pageshadow="2"
     inkscape:zoom="2"
     inkscape:cx="31"
     inkscape:cy="68.5"
     inkscape:document-units="px"
     inkscape:current-layer="layer1"
     inkscape:document-rotation="0"
     showgrid="false"
     units="px"
     inkscape:showpageshadow="2"
     inkscape:pagecheckerboard="0"
     inkscape:deskcolor="#d1d1d1"
     inkscape:window-width="1848"
     inkscape:window-height="1016"
     inkscape:window-x="72"
     inkscape:window-y="27"
     inkscape:window-maximized="1" />
  <metadata
     id="metadata5">
    <rdf:RDF>
      <cc:Work
         rdf:about="">
        <dc:format>image/svg+xml</dc:format>
        <dc:type
           rdf:resource="http://purl.org/dc/dcmitype/StillImage" />
      </cc:Work>
    </rdf:RDF>
  </metadata>
  <g
     inkscape:label="Layer 1"
     inkscape:groupmode="layer"
     id="layer1">
    <path
       id="path1"
       style="fill:#ffffff;fill-rule:evenodd;stroke:none;stroke-width:0.264999;paint-order:stroke fill markers;filter:url(#filter6)"
       d="M 14.683858 2.4045044 A 6.560545 6.560545 0 0 0 8.1850301 8.1049316 A 8.3930798 8.3930798 0 0 0 2.218986 16.134416 A 8.3930798 8.3930798 0 0 0 6.4740234 23.413558 A 5.450511 5.450511 0 0 0 5.9877482 25.661999 A 5.450511 5.450511 0 0 0 11.438061 31.112313 A 5.450511 5.450511 0 0 0 15.151013 29.637467 A 8.6875515 8.6875515 0 0 0 21.735107 32.660022 A 8.6875515 8.6875515 0 0 0 30.422949 23.972697 A 8.6875515 8.6875515 0 0 0 29.739787 20.598743 A 6.560545 6.560545 0 0 0 32.100366 15.568042 A 6.560545 6.560545 0 0 0 29.150159 10.091374 A 5.450511 5.450511 0 0 0 29.516028 8.1674601 A 5.450511 5.450511 0 0 0 24.065198 2.7171468 A 5.450511 5.450511 0 0 0 19.774503 4.8276123 A 6.560545 6.560545 0 0 0 14.683858 2.4045044 z " />
  </g>
</svg>
